# xmcd CD database file
#
# Track frame offsets:
#	150
#	27855
#	51155
#	77855
#	99128
#	110610
#	172030
#	189480
#
# Disc length: 2674 seconds
#
# Revision: 2
# Processed by: cddbd v1.5.2PL0 Copyright (c) Steve Scherf et al.
# Submitted via: CDex 1.51
#
DISCID=5f0a7008
DTITLE=Wha-ha-ha - Getahaitekonakucha[+1]
DYEAR=1981
DGENRE=Jazz
TTITLE0=Akatere
TTITLE1=Chic Tac
TTITLE2=Nojari
TTITLE3=Keiro No Hibi
TTITLE4=Part 1 Enzetsu
TTITLE5=Part 2 Wha-ha-ha Radio Theater
TTITLE6=Part 3 The Ondow
TTITLE7=Onnadeyokatta (extra track)
EXTD=YEAR: 1981
EXTT0=
EXTT1=
EXTT2=
EXTT3=
EXTT4=
EXTT5=
EXTT6=
EXTT7=
PLAYORDER=
